# This file uses centimeters as units for non-parametric coordinates.

mtllib conferencecollider.mtl
g default
v -4.000000 -0.500000 -2.000000
v 0.000000 -0.500000 2.000000
v -4.000000 0.500000 -2.000000
v 0.000000 0.500000 2.000000
v -2.000000 0.500000 -5.000000
v 1.000000 0.500000 -2.000000
v -2.000000 -0.500000 -5.000000
v 1.000000 -0.500000 -2.000000
v -4.000000 0.500000 -3.000000
v 1.000000 0.500000 1.000000
v 1.000000 -0.500000 1.000000
v -4.000000 -0.500000 -3.000000
vt 0.375000 0.000000
vt 0.625000 0.000000
vt 0.375000 0.250000
vt 0.625000 0.250000
vt 0.375000 0.500000
vt 0.625000 0.500000
vt 0.375000 0.750000
vt 0.625000 0.750000
vt 0.375000 1.000000
vt 0.625000 1.000000
vt 0.875000 0.000000
vt 0.875000 0.250000
vt 0.125000 0.000000
vt 0.125000 0.250000
vt 0.260446 0.250000
vt 0.375000 0.364554
vt 0.625000 0.364554
vt 0.739554 0.250000
vt 0.625000 0.885446
vt 0.739554 0.000000
vt 0.260446 0.000000
vt 0.375000 0.885446
vn -0.707107 0.000000 0.707107
vn -0.707107 0.000000 0.707107
vn -0.707107 0.000000 0.707107
vn -0.707107 0.000000 0.707107
vn 0.000000 1.000000 0.000000
vn 0.000000 1.000000 0.000000
vn 0.000000 1.000000 0.000000
vn 0.000000 1.000000 0.000000
vn 0.707107 0.000000 -0.707107
vn 0.707107 0.000000 -0.707107
vn 0.707107 0.000000 -0.707107
vn 0.707107 0.000000 -0.707107
vn 0.000000 -1.000000 0.000000
vn 0.000000 -1.000000 0.000000
vn 0.000000 -1.000000 0.000000
vn 0.000000 -1.000000 0.000000
vn 1.000000 0.000000 0.000000
vn 1.000000 0.000000 0.000000
vn 1.000000 0.000000 0.000000
vn 1.000000 0.000000 0.000000
vn -0.707107 0.000000 -0.707107
vn -0.707107 0.000000 -0.707107
vn -0.707107 0.000000 -0.707107
vn -0.707107 0.000000 -0.707107
vn 0.000000 1.000000 0.000000
vn 0.000000 1.000000 0.000000
vn 0.707107 0.000000 0.707107
vn 0.707107 0.000000 0.707107
vn 0.707107 0.000000 0.707107
vn 0.707107 0.000000 0.707107
vn 0.000000 -1.000000 0.000000
vn 0.000000 -1.000000 0.000000
vn -1.000000 0.000000 0.000000
vn -1.000000 0.000000 0.000000
vn -1.000000 0.000000 0.000000
vn -1.000000 0.000000 0.000000
s off
g pCube1
usemtl initialShadingGroup
f 1/1/1 2/2/2 4/4/3 3/3/4
s 1
f 9/16/5 10/17/6 6/6/7 5/5/8
s off
f 5/5/9 6/6/10 8/8/11 7/7/12
s 2
f 7/7/13 8/8/14 11/19/15 12/22/16
s off
f 10/18/17 11/20/18 8/11/19 6/12/20
f 7/13/21 12/21/22 9/15/23 5/14/24
s 1
f 3/3/25 4/4/26 10/17/6 9/16/5
s off
f 2/2/27 11/20/28 10/18/29 4/4/30
s 2
f 12/22/16 11/19/15 2/10/31 1/9/32
s off
f 9/15/33 12/21/34 1/1/35 3/3/36
