# Blender v2.92.0 OBJ File: 'assembly desk.blend'
# www.blender.org
mtllib assembly desk_LP_001.mtl
o desk_button_LP_Mesh.017
v -1.108584 0.865009 0.709138
v -0.984502 0.864999 0.709138
v -1.108584 0.865009 0.597485
v -0.984502 0.864999 0.597485
v -1.108590 0.780226 0.709138
v -0.984508 0.780217 0.709138
v -1.108590 0.780226 0.597485
v -0.984508 0.780217 0.597485
vt 0.351796 0.411149
vt 0.313265 0.411149
vt 0.313265 0.376478
vt 0.351796 0.376478
vt 0.822904 0.387347
vt 0.822904 0.425878
vt 0.796576 0.425878
vt 0.796576 0.387347
vt 0.436136 0.383981
vt 0.436136 0.422512
vt 0.401465 0.422512
vt 0.401465 0.383981
vt 0.796576 0.499081
vt 0.796576 0.460550
vt 0.822904 0.460550
vt 0.822904 0.499080
vt 0.822903 0.533752
vt 0.796576 0.533752
vn -0.4600 0.7072 0.5370
vn 0.4601 0.7071 0.5370
vn 0.4601 0.7071 -0.5370
vn -0.4600 0.7072 -0.5370
vn 0.4600 -0.7072 -0.5370
vn -0.4601 -0.7071 -0.5369
vn 0.4600 -0.7072 0.5370
vn -0.4601 -0.7071 0.5370
usemtl desk_button
s 1
f 1/1/1 2/2/2 4/3/3 3/4/4
f 3/5/4 4/6/3 8/7/5 7/8/6
f 7/9/6 8/10/5 6/11/7 5/12/8
f 5/13/8 6/14/7 2/15/2 1/16/1
f 3/17/4 7/18/6 5/13/8 1/16/1
f 8/7/5 4/6/3 2/15/2 6/14/7
o desk_main_LP_redone_Mesh.004
v -1.273283 0.758809 0.788270
v -1.272765 -0.000001 0.780914
v -1.190998 0.700264 -0.006840
v -1.190998 0.702126 0.183759
v -1.188920 0.001641 0.188040
v -1.189035 0.001223 -0.000516
v -1.272765 -0.000001 0.000000
v -1.273283 0.758809 -0.007356
v -1.338801 0.759624 -0.031134
v -1.338801 0.821952 -0.031134
v -1.338801 0.759624 0.812048
v -1.338801 0.821952 0.812048
v 0.000489 0.758809 0.788270
v -0.000030 -0.000001 0.780914
v -0.081797 0.700264 -0.006840
v -0.081797 0.702126 0.183759
v -0.083875 0.001641 0.188040
v -0.083760 0.001223 -0.000516
v -0.000030 -0.000001 0.000000
v 0.000489 0.758809 -0.007356
v 0.066007 0.759624 -0.031134
v 0.066007 0.821952 -0.031134
v 0.066006 0.759624 0.812048
v 0.066006 0.821952 0.812048
vt 0.015021 0.033347
vt 0.015011 0.427294
vt 0.007652 0.447559
vt 0.007663 0.013083
vt 0.250188 0.512608
vt 0.250188 0.906250
vt 0.015485 0.906411
vt 0.015486 0.512447
vt 0.891507 0.191300
vt 0.549737 0.193662
vt 0.522538 0.010476
vt 0.916171 0.007755
vt 0.991343 0.193797
vt 0.991187 0.410012
vt 0.932234 0.410012
vt 0.933026 0.193356
vt 0.917847 0.249277
vt 0.891949 0.249616
vt 0.848842 0.249415
vt 0.632629 0.250023
vt 0.632249 0.224126
vt 0.866950 0.223965
vt 0.627822 0.896180
vt 0.627822 0.654652
vt 0.862513 0.652377
vt 0.862513 0.898455
vt 0.268445 0.013034
vt 0.261095 0.033301
vt 0.535964 0.883506
vt 0.535853 0.902782
vt 0.275071 0.901280
vt 0.275182 0.882003
vt 0.045671 0.084554
vt 0.480162 0.083884
vt 0.480564 0.344671
vt 0.046073 0.345340
vt 0.577140 0.962607
vt 0.557863 0.962607
vt 0.557863 0.528115
vt 0.577140 0.528115
vt 0.901598 0.730173
vt 0.901598 0.336217
vt 0.908957 0.315953
vt 0.908957 0.750437
vt 0.276867 0.807769
vt 0.276867 0.465991
vt 0.493523 0.465348
vt 0.493523 0.808411
vt 0.848842 0.592480
vt 0.866950 0.617930
vt 0.991187 0.753075
vt 0.932234 0.753075
vt 0.991343 0.969291
vt 0.933026 0.969731
vt 0.550101 0.251980
vt 0.524201 0.251998
vt 0.632248 0.617769
vt 0.632628 0.591872
vt 0.763806 0.508505
vt 0.529115 0.510780
vt 0.529115 0.264702
vt 0.763806 0.266977
vt 0.268445 0.447622
vt 0.261096 0.427354
vt 0.904159 0.948722
vt 0.643377 0.947220
vt 0.643488 0.927943
vt 0.904270 0.929445
vt 0.484721 0.973072
vt 0.050229 0.973071
vt 0.050229 0.953794
vt 0.484721 0.953794
vn -0.4088 -0.8115 0.4176
vn 0.4088 -0.8115 0.4176
vn 0.4102 -0.8100 0.4190
vn -0.4102 -0.8100 0.4190
vn -0.4007 -0.8207 0.4073
vn 0.4007 -0.8207 0.4073
vn 0.4139 -0.8140 -0.4075
vn -0.4139 -0.8140 -0.4075
vn 0.5820 -0.5769 -0.5731
vn 0.4074 -0.4150 -0.8135
vn 0.5785 -0.5804 -0.5731
vn -0.5696 -0.5842 -0.5782
vn -0.3341 -0.6638 -0.6691
vn -0.4102 -0.8100 -0.4190
vn -0.5774 0.5774 -0.5774
vn -0.5774 0.5774 0.5774
vn 0.5774 0.5774 -0.5774
vn 0.5774 0.5774 0.5774
vn 0.4102 -0.8100 -0.4190
vn 0.3341 -0.6638 -0.6691
vn -0.5785 -0.5804 -0.5731
vn -0.4074 -0.4150 -0.8135
vn -0.5820 -0.5769 -0.5731
vn 0.5696 -0.5842 -0.5782
usemtl desk_main
s 1
f 9/19/9 21/20/10 31/21/11 19/22/12
f 10/23/13 22/24/14 21/25/10 9/26/9
f 13/27/15 25/28/16 22/29/14 10/30/13
f 14/31/17 11/32/18 12/33/19 13/34/15
f 13/27/15 10/30/13 15/35/20 14/36/17
f 11/37/18 14/38/17 15/39/20 16/40/21
f 15/41/20 10/42/13 9/43/9 16/44/21
f 17/45/22 16/46/21 9/19/9 19/22/12
f 18/47/23 17/48/22 19/49/12 20/50/24
f 30/51/25 18/52/23 20/53/24 32/54/26
f 30/55/25 29/56/27 17/57/22 18/58/23
f 28/59/28 16/60/21 17/61/22 29/62/27
f 25/63/16 13/64/15 12/65/19 24/66/29
f 23/67/30 11/37/18 16/40/21 28/68/28
f 11/32/18 23/69/30 24/70/29 12/33/19
f 26/71/31 25/72/16 24/70/29 23/69/30
f 25/28/16 26/73/31 27/74/32 22/29/14
f 23/67/30 28/68/28 27/75/32 26/76/31
f 27/77/32 28/78/28 21/79/10 22/80/14
f 29/81/27 31/21/11 21/20/10 28/82/28
f 30/83/25 32/84/26 31/85/11 29/86/27
f 19/87/12 31/88/11 32/89/26 20/90/24
o chair_side_thing_LP.001_Mesh.003
v -1.307977 0.601465 0.694283
v -1.307977 0.698382 0.694283
v -1.307977 0.601465 0.592489
v -1.307977 0.698382 0.592489
v -1.230681 0.601465 0.694283
v -1.230681 0.698382 0.694283
v -1.230681 0.601465 0.592489
v -1.230681 0.698382 0.592489
vt 0.461984 0.862459
vt 0.432343 0.862459
vt 0.432343 0.831327
vt 0.461984 0.831327
vt 0.531720 0.754962
vt 0.531720 0.784603
vt 0.508080 0.784603
vt 0.508080 0.754962
vt 0.487087 0.833361
vt 0.516728 0.833361
vt 0.516728 0.864494
vt 0.487087 0.864494
vt 0.508080 0.723829
vt 0.508080 0.694188
vt 0.531720 0.694188
vt 0.531720 0.723829
vt 0.531720 0.815736
vt 0.508080 0.815736
vn -0.5774 -0.5773 0.5774
vn -0.5773 0.5774 0.5774
vn -0.5774 0.5773 -0.5774
vn -0.5774 -0.5774 -0.5773
vn 0.5774 0.5773 -0.5774
vn 0.5773 -0.5774 -0.5773
vn 0.5774 0.5773 0.5774
vn 0.5774 -0.5774 0.5774
usemtl chair_side_thing
s 1
f 33/91/33 34/92/34 36/93/35 35/94/36
f 35/95/36 36/96/35 40/97/37 39/98/38
f 39/99/38 40/100/37 38/101/39 37/102/40
f 37/103/40 38/104/39 34/105/34 33/106/33
f 35/95/36 39/98/38 37/103/40 33/106/33
f 40/97/37 36/96/35 34/107/34 38/108/39
