# This file uses centimeters as units for non-parametric coordinates.

mtllib desk top.mtl
g default
v -1.174621 0.105384 0.740272
v -1.050539 0.105374 0.740272
v -1.174621 0.105384 0.628619
v -1.050539 0.105374 0.628619
v -1.174627 0.020601 0.740272
v -1.050545 0.020592 0.740272
v -1.174627 0.020601 0.628619
v -1.050545 0.020592 0.628619
v -1.404838 -0.000001 0.843182
v -1.404838 -0.000001 0.000000
v -1.404838 0.062327 0.000000
v -1.404838 0.062327 0.843182
v -0.000031 -0.000001 0.843182
v -0.000030 -0.000001 0.000000
v -0.000030 0.062327 0.000000
v -0.000031 0.062327 0.843182
vt 0.351796 0.411149
vt 0.313265 0.411149
vt 0.313265 0.376478
vt 0.351796 0.376478
vt 0.822904 0.387347
vt 0.822904 0.425878
vt 0.796576 0.425878
vt 0.796576 0.387347
vt 0.436136 0.383981
vt 0.436136 0.422512
vt 0.401465 0.422512
vt 0.401465 0.383981
vt 0.796576 0.499081
vt 0.796576 0.460550
vt 0.822904 0.460550
vt 0.822904 0.499080
vt 0.822903 0.533752
vt 0.796576 0.533752
vt 0.535964 0.883506
vt 0.535853 0.902782
vt 0.275091 0.901038
vt 0.275182 0.882003
vt 0.045671 0.084554
vt 0.480162 0.083884
vt 0.480564 0.344671
vt 0.046073 0.345340
vt 0.577140 0.962607
vt 0.557863 0.962607
vt 0.557863 0.528115
vt 0.577140 0.528115
vt 0.284743 0.802004
vt 0.284305 0.470052
vt 0.483846 0.470035
vt 0.483846 0.802013
vt 0.904159 0.948722
vt 0.643377 0.947220
vt 0.643505 0.928185
vt 0.904270 0.929445
vt 0.484713 0.972771
vt 0.050240 0.972829
vt 0.050229 0.953794
vt 0.484721 0.953794
vn -0.459977 0.707164 0.536973
vn 0.460088 0.707082 0.536986
vn 0.460088 0.707082 -0.536986
vn -0.459977 0.707164 -0.536973
vn -0.459977 0.707164 -0.536973
vn 0.460088 0.707082 -0.536986
vn 0.459977 -0.707164 -0.536973
vn -0.460113 -0.707120 -0.536915
vn -0.460113 -0.707120 -0.536915
vn 0.459977 -0.707164 -0.536973
vn 0.459977 -0.707164 0.536973
vn -0.460088 -0.707082 0.536986
vn -0.460088 -0.707082 0.536986
vn 0.459977 -0.707164 0.536973
vn 0.460088 0.707082 0.536986
vn -0.459977 0.707164 0.536973
vn -0.459977 0.707164 -0.536973
vn -0.460113 -0.707120 -0.536915
vn -0.460088 -0.707082 0.536986
vn -0.459977 0.707164 0.536973
vn 0.459977 -0.707164 -0.536973
vn 0.460088 0.707082 -0.536986
vn 0.460088 0.707082 0.536986
vn 0.459977 -0.707164 0.536973
vn -0.577350 0.577350 -0.577350
vn -0.410215 -0.810030 -0.419016
vn -0.410215 -0.810030 0.419016
vn -0.577350 0.577350 0.577350
vn 0.577350 0.577350 -0.577350
vn -0.577350 0.577350 -0.577350
vn -0.577350 0.577350 0.577350
vn 0.577350 0.577350 0.577350
vn 0.577350 0.577350 -0.577350
vn 0.410215 -0.810030 -0.419016
vn -0.410215 -0.810030 -0.419016
vn -0.577350 0.577350 -0.577350
vn 0.334109 -0.663817 -0.669117
vn -0.334109 -0.663817 -0.669117
vn -0.410215 -0.810030 -0.419016
vn 0.410215 -0.810030 -0.419016
vn 0.577350 0.577350 -0.577350
vn 0.577350 0.577350 0.577350
vn 0.410215 -0.810030 0.419016
vn 0.410215 -0.810030 -0.419016
vn -0.410215 -0.810030 0.419016
vn 0.410215 -0.810030 0.419016
vn 0.577350 0.577350 0.577350
vn -0.577350 0.577350 0.577350
s off
g assembly_desk_LP_002:Mesh
usemtl lambert2SG
f 1/1/1 2/2/2 4/3/3 3/4/4
f 3/5/5 4/6/6 8/7/7 7/8/8
f 7/9/9 8/10/10 6/11/11 5/12/12
f 5/13/13 6/14/14 2/15/15 1/16/16
f 3/17/17 7/18/18 5/13/19 1/16/20
f 8/7/21 4/6/22 2/15/23 6/14/24
f 11/19/25 10/20/26 9/21/27 12/22/28
f 15/23/29 11/24/30 12/25/31 16/26/32
f 15/27/33 14/28/34 10/29/35 11/30/36
f 13/31/37 9/32/38 10/33/39 14/34/40
f 15/35/41 16/36/42 13/37/43 14/38/44
f 9/39/45 13/40/46 16/41/47 12/42/48
