# Blender v2.92.0 OBJ File: ''
# www.blender.org
mtllib MI_Prop_OfficeDesk_V2.mtl
o polySurface14.002_Mesh.001
v -1.308585 0.878281 0.740029
v 1.308585 0.878281 0.740029
v -1.308585 0.925880 0.740029
v -1.308585 0.878281 -0.347791
v 1.308585 0.878281 -0.347791
v -1.308585 0.925880 -0.347791
v 1.308585 0.925880 -0.347791
v 1.308585 0.925880 0.740029
v 0.396188 0.173192 0.793805
v 0.993702 0.173192 0.793805
v 0.396188 0.173192 -0.000002
v 0.396188 0.769516 0.793805
v 0.993702 0.769516 0.793805
v 0.396188 0.769517 -0.000002
v 0.993702 0.769517 -0.000002
v 0.993702 0.173192 -0.000002
v -0.396188 0.173192 0.793805
v -0.993702 0.173192 0.793805
v -0.396188 0.173192 -0.000002
v -0.396188 0.769516 0.793805
v -0.993702 0.769516 0.793805
v -0.396188 0.769517 -0.000002
v -0.993702 0.769517 -0.000002
v -0.993702 0.173192 -0.000002
v 0.799444 0.769516 0.613881
v 0.820403 0.769516 0.613881
v 0.799444 0.882227 0.613881
v 0.799444 0.769517 0.066521
v 0.820403 0.769517 0.066521
v 0.799444 0.882227 0.066521
v 0.820403 0.882227 0.066521
v 0.820403 0.882227 0.613881
v -0.799444 0.769516 0.613881
v -0.820403 0.769516 0.613881
v -0.799444 0.882227 0.613881
v -0.799444 0.769517 0.066521
v -0.820403 0.769517 0.066521
v -0.799444 0.882227 0.066521
v -0.820403 0.882227 0.066521
v -0.820403 0.882227 0.613881
v 0.748073 0.000001 0.106843
v 0.734345 0.000001 0.101156
v 0.753760 0.000001 0.120571
v 0.748073 0.173192 0.106843
v 0.734345 0.000001 0.120571
v 0.720617 0.000001 0.106843
v 0.714930 0.000001 0.120571
v 0.720617 0.000001 0.134299
v 0.734345 0.000001 0.139986
v 0.748073 0.000001 0.134299
v 0.748073 0.173192 0.134300
v 0.734345 0.173192 0.139986
v 0.753760 0.173192 0.120571
v 0.720617 0.173192 0.134300
v 0.714930 0.173192 0.120571
v 0.720617 0.173192 0.106843
v 0.734345 0.173192 0.101156
v -0.748073 0.000001 0.106843
v -0.734345 0.000001 0.101156
v -0.753760 0.000001 0.120571
v -0.748073 0.173192 0.106843
v -0.734345 0.000001 0.120571
v -0.720617 0.000001 0.106843
v -0.714930 0.000001 0.120571
v -0.720617 0.000001 0.134299
v -0.734345 0.000001 0.139986
v -0.748073 0.000001 0.134299
v -0.748073 0.173192 0.134300
v -0.734345 0.173192 0.139986
v -0.753760 0.173192 0.120571
v -0.720617 0.173192 0.134300
v -0.714930 0.173192 0.120571
v -0.720617 0.173192 0.106843
v -0.734345 0.173192 0.101156
v 0.748073 0.000001 0.671693
v 0.734345 0.000001 0.666007
v 0.753760 0.000001 0.685421
v 0.748073 0.173192 0.671693
v 0.734345 0.000001 0.685421
v 0.720617 0.000001 0.671693
v 0.714930 0.000001 0.685421
v 0.720617 0.000001 0.699150
v 0.734345 0.000001 0.704836
v 0.748073 0.000001 0.699150
v 0.748073 0.173192 0.699150
v 0.734345 0.173192 0.704836
v 0.753760 0.173192 0.685421
v 0.720617 0.173192 0.699150
v 0.714930 0.173192 0.685421
v 0.720617 0.173192 0.671693
v 0.734345 0.173192 0.666007
v -0.748073 0.000001 0.671693
v -0.734345 0.000001 0.666007
v -0.753760 0.000001 0.685421
v -0.748073 0.173192 0.671693
v -0.734345 0.000001 0.685421
v -0.720617 0.000001 0.671693
v -0.714930 0.000001 0.685421
v -0.720617 0.000001 0.699150
v -0.734345 0.000001 0.704836
v -0.748073 0.000001 0.699150
v -0.748073 0.173192 0.699150
v -0.734345 0.173192 0.704836
v -0.753760 0.173192 0.685421
v -0.720617 0.173192 0.699150
v -0.714930 0.173192 0.685421
v -0.720617 0.173192 0.671693
v -0.734345 0.173192 0.666007
v 0.666914 0.354690 0.824953
v 0.698062 0.354690 0.824953
v 0.666914 0.385838 0.824953
v 0.666914 0.354690 0.793805
v 0.698062 0.354690 0.793805
v 0.666914 0.385838 0.793805
v 0.698062 0.385838 0.793805
v 0.698062 0.385838 0.824953
v -0.666914 0.354690 0.824953
v -0.698062 0.354690 0.824953
v -0.666914 0.385838 0.824953
v -0.666914 0.354690 0.793805
v -0.698062 0.354690 0.793805
v -0.666914 0.385838 0.793805
v -0.698062 0.385838 0.793805
v -0.698062 0.385838 0.824953
v 0.666914 0.554229 0.824953
v 0.698062 0.554229 0.824953
v 0.666914 0.585376 0.824953
v 0.666914 0.554229 0.793806
v 0.698062 0.554229 0.793806
v 0.666914 0.585376 0.793806
v 0.698062 0.585376 0.793806
v 0.698062 0.585376 0.824953
v -0.666914 0.554229 0.824953
v -0.698062 0.554229 0.824953
v -0.666914 0.585376 0.824953
v -0.666914 0.554229 0.793806
v -0.698062 0.554229 0.793806
v -0.666914 0.585376 0.793806
v -0.698062 0.585376 0.793806
v -0.698062 0.585376 0.824953
v 0.666914 0.725262 0.824953
v 0.698062 0.725262 0.824953
v 0.666914 0.756409 0.824953
v 0.666914 0.725262 0.793806
v 0.698062 0.725262 0.793806
v 0.666914 0.756409 0.793806
v 0.698062 0.756409 0.793806
v 0.698062 0.756409 0.824953
v -0.666914 0.725262 0.824953
v -0.698062 0.725262 0.824953
v -0.666914 0.756409 0.824953
v -0.666914 0.725262 0.793806
v -0.698062 0.725262 0.793806
v -0.666914 0.756409 0.793806
v -0.698062 0.756409 0.793806
v -0.698062 0.756409 0.824953
vt 0.146143 0.292055
vt 0.619440 0.291673
vt 0.620716 0.497961
vt 0.147420 0.497995
vt 0.620580 0.510739
vt 0.147284 0.510773
vt 0.148937 0.768331
vt 0.377891 0.768297
vt 0.378656 0.781075
vt 0.149604 0.781109
vt 0.148560 0.717061
vt 0.621857 0.716679
vt 0.621720 0.724672
vt 0.148424 0.725054
vt 0.147650 0.747649
vt 0.376702 0.747614
vt 0.377369 0.760392
vt 0.148415 0.760427
vt 0.647245 0.446757
vt 0.648778 0.304942
vt 0.790875 0.306478
vt 0.789343 0.448292
vt 0.643673 0.777351
vt 0.785770 0.778886
vt 0.783731 0.967665
vt 0.641633 0.966130
vt 0.972112 0.820129
vt 0.972112 0.973397
vt 0.818844 0.973397
vt 0.818844 0.820129
vt 0.787303 0.637072
vt 0.645205 0.635536
vt 0.970434 0.809483
vt 0.817166 0.809483
vt 0.817166 0.656215
vt 0.970434 0.656215
vt 0.647245 0.446757
vt 0.789343 0.448292
vt 0.790875 0.306478
vt 0.648778 0.304942
vt 0.643673 0.777351
vt 0.641633 0.966130
vt 0.783731 0.967665
vt 0.785770 0.778886
vt 0.972112 0.820129
vt 0.818844 0.820129
vt 0.818844 0.973397
vt 0.972112 0.973397
vt 0.645205 0.635536
vt 0.787303 0.637072
vt 0.970434 0.809483
vt 0.970434 0.656215
vt 0.817166 0.656215
vt 0.817166 0.809483
vt 0.709697 0.018973
vt 0.728535 0.018605
vt 0.729750 0.058487
vt 0.710912 0.058855
vt 0.578016 0.019342
vt 0.579231 0.059223
vt 0.880268 0.057751
vt 0.861430 0.058119
vt 0.860215 0.018237
vt 0.879053 0.017869
vt 0.709697 0.018973
vt 0.710912 0.058855
vt 0.729750 0.058487
vt 0.728535 0.018605
vt 0.578016 0.019342
vt 0.579231 0.059223
vt 0.880268 0.057751
vt 0.879053 0.017869
vt 0.860215 0.018237
vt 0.861430 0.058119
vt 0.921253 0.117520
vt 0.963570 0.135048
vt 0.921253 0.174971
vt 0.873377 0.237209
vt 0.885346 0.237209
vt 0.885346 0.381197
vt 0.873377 0.381197
vt 0.981098 0.177364
vt 0.957160 0.237209
vt 0.969129 0.237209
vt 0.969129 0.381197
vt 0.957160 0.381197
vt 0.878936 0.135048
vt 0.861408 0.177364
vt 0.878936 0.219681
vt 0.921253 0.237209
vt 0.963570 0.219681
vt 0.933222 0.237209
vt 0.945191 0.237209
vt 0.945191 0.381197
vt 0.933222 0.381197
vt 0.921253 0.237209
vt 0.921253 0.381197
vt 0.909284 0.237209
vt 0.909284 0.381197
vt 0.897315 0.237209
vt 0.897315 0.381197
vt 0.921253 0.117520
vt 0.921253 0.174971
vt 0.963570 0.135048
vt 0.873377 0.237209
vt 0.873377 0.381197
vt 0.885346 0.381197
vt 0.885346 0.237209
vt 0.981098 0.177364
vt 0.957160 0.237209
vt 0.957160 0.381197
vt 0.969129 0.381197
vt 0.969129 0.237209
vt 0.878936 0.135048
vt 0.861408 0.177364
vt 0.878936 0.219681
vt 0.921253 0.237209
vt 0.963570 0.219681
vt 0.933222 0.237209
vt 0.933222 0.381197
vt 0.945191 0.381197
vt 0.945191 0.237209
vt 0.921253 0.237209
vt 0.921253 0.381197
vt 0.909284 0.237209
vt 0.909284 0.381197
vt 0.897315 0.237209
vt 0.897315 0.381197
vt 0.921253 0.117520
vt 0.963570 0.135048
vt 0.921253 0.174971
vt 0.873377 0.237209
vt 0.885346 0.237209
vt 0.885346 0.381197
vt 0.873377 0.381197
vt 0.981098 0.177364
vt 0.957160 0.237209
vt 0.969129 0.237209
vt 0.969129 0.381197
vt 0.957160 0.381197
vt 0.878936 0.135048
vt 0.861408 0.177364
vt 0.878936 0.219681
vt 0.921253 0.237209
vt 0.963570 0.219681
vt 0.933222 0.237209
vt 0.945191 0.237209
vt 0.945191 0.381197
vt 0.933222 0.381197
vt 0.921253 0.237209
vt 0.921253 0.381197
vt 0.909284 0.237209
vt 0.909284 0.381197
vt 0.897315 0.237209
vt 0.897315 0.381197
vt 0.921253 0.117520
vt 0.921253 0.174971
vt 0.963570 0.135048
vt 0.873377 0.237209
vt 0.873377 0.381197
vt 0.885346 0.381197
vt 0.885346 0.237209
vt 0.981098 0.177364
vt 0.957160 0.237209
vt 0.957160 0.381197
vt 0.969129 0.381197
vt 0.969129 0.237209
vt 0.878936 0.135048
vt 0.861408 0.177364
vt 0.878936 0.219681
vt 0.921253 0.237209
vt 0.963570 0.219681
vt 0.933222 0.237209
vt 0.933222 0.381197
vt 0.945191 0.381197
vt 0.945191 0.237209
vt 0.921253 0.237209
vt 0.921253 0.381197
vt 0.909284 0.237209
vt 0.909284 0.381197
vt 0.897315 0.237209
vt 0.897315 0.381197
vt 0.793539 0.251847
vt 0.816959 0.251847
vt 0.816959 0.275267
vt 0.793539 0.275267
vt 0.793539 0.181587
vt 0.816959 0.181587
vt 0.816959 0.205007
vt 0.793539 0.205007
vt 0.770119 0.181587
vt 0.770119 0.205007
vt 0.793539 0.228427
vt 0.816959 0.228427
vt 0.840379 0.181587
vt 0.840379 0.205007
vt 0.793539 0.251847
vt 0.793539 0.275267
vt 0.816959 0.275267
vt 0.816959 0.251847
vt 0.793539 0.181587
vt 0.793539 0.205007
vt 0.816959 0.205007
vt 0.816959 0.181587
vt 0.770119 0.181587
vt 0.770119 0.205007
vt 0.793539 0.228427
vt 0.816959 0.228427
vt 0.840379 0.205007
vt 0.840379 0.181587
vt 0.793539 0.251847
vt 0.816959 0.251847
vt 0.816959 0.275267
vt 0.793539 0.275267
vt 0.793539 0.181587
vt 0.816959 0.181587
vt 0.816959 0.205007
vt 0.793539 0.205007
vt 0.770119 0.181587
vt 0.770119 0.205007
vt 0.793539 0.228427
vt 0.816959 0.228427
vt 0.840379 0.181587
vt 0.840379 0.205007
vt 0.793539 0.251847
vt 0.793539 0.275267
vt 0.816959 0.275267
vt 0.816959 0.251847
vt 0.793539 0.181587
vt 0.793539 0.205007
vt 0.816959 0.205007
vt 0.816959 0.181587
vt 0.770119 0.181587
vt 0.770119 0.205007
vt 0.793539 0.228427
vt 0.816959 0.228427
vt 0.840379 0.205007
vt 0.840379 0.181587
vt 0.793539 0.251847
vt 0.816959 0.251847
vt 0.816959 0.275267
vt 0.793539 0.275267
vt 0.793539 0.181587
vt 0.816959 0.181587
vt 0.816959 0.205007
vt 0.793539 0.205007
vt 0.770119 0.181587
vt 0.770119 0.205007
vt 0.793539 0.228427
vt 0.816959 0.228427
vt 0.840379 0.181587
vt 0.840379 0.205007
vt 0.793539 0.251847
vt 0.793539 0.275267
vt 0.816959 0.275267
vt 0.816959 0.251847
vt 0.793539 0.181587
vt 0.793539 0.205007
vt 0.816959 0.205007
vt 0.816959 0.181587
vt 0.770119 0.181587
vt 0.770119 0.205007
vt 0.793539 0.228427
vt 0.816959 0.228427
vt 0.840379 0.205007
vt 0.840379 0.181587
vn 0.0000 -1.0000 -0.0000
vn 0.0000 -0.0000 1.0000
vn -1.0000 -0.0000 0.0000
vn 0.0000 0.0000 -1.0000
vn 0.0000 1.0000 0.0000
vn 1.0000 -0.0000 0.0000
vn 0.7071 0.0000 -0.7071
vn 0.7071 -0.0000 0.7071
vn -0.7071 -0.0000 0.7071
vn -0.7071 0.0000 -0.7071
usemtl lambert1
s 1
f 4/1/1 5/2/1 2/3/1 1/4/1
f 1/4/2 2/3/2 8/5/2 3/6/2
f 4/7/3 1/8/3 3/9/3 6/10/3
f 6/11/4 7/12/4 5/13/4 4/14/4
f 3/6/5 8/5/5 7/12/5 6/11/5
f 2/15/6 5/16/6 7/17/6 8/18/6
f 12/19/2 9/20/2 10/21/2 13/22/2
f 11/23/1 16/24/1 10/25/1 9/26/1
f 9/27/3 12/28/3 14/29/3 11/30/3
f 12/19/5 13/22/5 15/31/5 14/32/5
f 14/32/4 15/31/4 16/24/4 11/23/4
f 15/33/6 13/34/6 10/35/6 16/36/6
f 20/37/2 21/38/2 18/39/2 17/40/2
f 19/41/1 17/42/1 18/43/1 24/44/1
f 17/45/6 19/46/6 22/47/6 20/48/6
f 20/37/5 22/49/5 23/50/5 21/38/5
f 22/49/4 19/41/4 24/44/4 23/50/4
f 23/51/3 24/52/3 18/53/3 21/54/3
f 25/55/2 26/56/2 32/57/2 27/58/2
f 28/59/3 25/55/3 27/58/3 30/60/3
f 30/61/4 31/62/4 29/63/4 28/64/4
f 26/56/6 29/63/6 31/62/6 32/57/6
f 33/65/2 35/66/2 40/67/2 34/68/2
f 36/69/6 38/70/6 35/66/6 33/65/6
f 38/71/4 36/72/4 37/73/4 39/74/4
f 34/68/3 40/67/3 39/74/3 37/73/3
f 42/75/1 41/76/1 45/77/1
f 41/78/7 42/79/4 57/80/4 44/81/7
f 41/76/1 43/82/1 45/77/1
f 43/83/6 41/84/7 44/85/7 53/86/6
f 46/87/1 42/75/1 45/77/1
f 47/88/1 46/87/1 45/77/1
f 48/89/1 47/88/1 45/77/1
f 49/90/1 48/89/1 45/77/1
f 50/91/1 49/90/1 45/77/1
f 43/82/1 50/91/1 45/77/1
f 49/92/2 50/93/8 51/94/8 52/95/2
f 50/93/8 43/83/6 53/86/6 51/94/8
f 48/96/9 49/92/2 52/95/2 54/97/9
f 47/98/3 48/96/9 54/97/9 55/99/3
f 46/100/10 47/98/3 55/99/3 56/101/10
f 42/79/4 46/100/10 56/101/10 57/80/4
f 59/102/1 62/103/1 58/104/1
f 58/105/10 61/106/10 74/107/4 59/108/4
f 58/104/1 62/103/1 60/109/1
f 60/110/3 70/111/3 61/112/10 58/113/10
f 63/114/1 62/103/1 59/102/1
f 64/115/1 62/103/1 63/114/1
f 65/116/1 62/103/1 64/115/1
f 66/117/1 62/103/1 65/116/1
f 67/118/1 62/103/1 66/117/1
f 60/109/1 62/103/1 67/118/1
f 66/119/2 69/120/2 68/121/9 67/122/9
f 67/122/9 68/121/9 70/111/3 60/110/3
f 65/123/8 71/124/8 69/120/2 66/119/2
f 64/125/6 72/126/6 71/124/8 65/123/8
f 63/127/7 73/128/7 72/126/6 64/125/6
f 59/108/4 74/107/4 73/128/7 63/127/7
f 76/129/1 75/130/1 79/131/1
f 75/132/7 76/133/4 91/134/4 78/135/7
f 75/130/1 77/136/1 79/131/1
f 77/137/6 75/138/7 78/139/7 87/140/6
f 80/141/1 76/129/1 79/131/1
f 81/142/1 80/141/1 79/131/1
f 82/143/1 81/142/1 79/131/1
f 83/144/1 82/143/1 79/131/1
f 84/145/1 83/144/1 79/131/1
f 77/136/1 84/145/1 79/131/1
f 83/146/2 84/147/8 85/148/8 86/149/2
f 84/147/8 77/137/6 87/140/6 85/148/8
f 82/150/9 83/146/2 86/149/2 88/151/9
f 81/152/3 82/150/9 88/151/9 89/153/3
f 80/154/10 81/152/3 89/153/3 90/155/10
f 76/133/4 80/154/10 90/155/10 91/134/4
f 93/156/1 96/157/1 92/158/1
f 92/159/10 95/160/10 108/161/4 93/162/4
f 92/158/1 96/157/1 94/163/1
f 94/164/3 104/165/3 95/166/10 92/167/10
f 97/168/1 96/157/1 93/156/1
f 98/169/1 96/157/1 97/168/1
f 99/170/1 96/157/1 98/169/1
f 100/171/1 96/157/1 99/170/1
f 101/172/1 96/157/1 100/171/1
f 94/163/1 96/157/1 101/172/1
f 100/173/2 103/174/2 102/175/9 101/176/9
f 101/176/9 102/175/9 104/165/3 94/164/3
f 99/177/8 105/178/8 103/174/2 100/173/2
f 98/179/6 106/180/6 105/178/8 99/177/8
f 97/181/7 107/182/7 106/180/6 98/179/6
f 93/162/4 108/161/4 107/182/7 97/181/7
f 112/183/1 113/184/1 110/185/1 109/186/1
f 109/187/2 110/188/2 116/189/2 111/190/2
f 112/191/3 109/187/3 111/190/3 114/192/3
f 114/193/4 115/194/4 113/184/4 112/183/4
f 111/190/5 116/189/5 115/194/5 114/193/5
f 110/188/6 113/195/6 115/196/6 116/189/6
f 120/197/1 117/198/1 118/199/1 121/200/1
f 117/201/2 119/202/2 124/203/2 118/204/2
f 120/205/6 122/206/6 119/202/6 117/201/6
f 122/207/4 120/197/4 121/200/4 123/208/4
f 119/202/5 122/207/5 123/208/5 124/203/5
f 118/204/3 124/203/3 123/209/3 121/210/3
f 128/211/1 129/212/1 126/213/1 125/214/1
f 125/215/2 126/216/2 132/217/2 127/218/2
f 128/219/3 125/215/3 127/218/3 130/220/3
f 130/221/4 131/222/4 129/212/4 128/211/4
f 127/218/5 132/217/5 131/222/5 130/221/5
f 126/216/6 129/223/6 131/224/6 132/217/6
f 136/225/1 133/226/1 134/227/1 137/228/1
f 133/229/2 135/230/2 140/231/2 134/232/2
f 136/233/6 138/234/6 135/230/6 133/229/6
f 138/235/4 136/225/4 137/228/4 139/236/4
f 135/230/5 138/235/5 139/236/5 140/231/5
f 134/232/3 140/231/3 139/237/3 137/238/3
f 144/239/1 145/240/1 142/241/1 141/242/1
f 141/243/2 142/244/2 148/245/2 143/246/2
f 144/247/3 141/243/3 143/246/3 146/248/3
f 146/249/4 147/250/4 145/240/4 144/239/4
f 143/246/5 148/245/5 147/250/5 146/249/5
f 142/244/6 145/251/6 147/252/6 148/245/6
f 152/253/1 149/254/1 150/255/1 153/256/1
f 149/257/2 151/258/2 156/259/2 150/260/2
f 152/261/6 154/262/6 151/258/6 149/257/6
f 154/263/4 152/253/4 153/256/4 155/264/4
f 151/258/5 154/263/5 155/264/5 156/259/5
f 150/260/3 156/259/3 155/265/3 153/266/3
