# Blender v2.92.0 OBJ File: 'assembly desk.blend'
# www.blender.org
mtllib assembly_chair_LP_003.mtl
o chair_backwood_LP_Mesh.006
v -0.099584 1.428178 -0.022127
v -0.099584 0.997525 -0.022127
v -0.099584 1.428178 0.021504
v -0.523045 1.428178 -0.022127
v -0.523045 0.997525 -0.022127
v -0.523045 1.428178 0.021505
v -0.946506 1.428178 -0.022127
v -0.946506 1.428178 0.021505
v -0.946506 0.997525 -0.022127
v -0.946506 0.997525 0.021505
v -0.946506 0.513662 0.034834
v -0.523045 0.513662 0.034834
v -0.946506 0.513662 0.078466
v -0.946506 0.000800 0.187885
v -0.946506 0.000800 0.231516
v -0.523045 0.000800 0.187885
v -0.099584 0.000800 0.187884
v -0.523045 0.000800 0.231516
v -0.099584 0.000800 0.231516
v -0.523045 0.513662 0.078466
v -0.523045 0.997525 0.021504
v -0.099584 0.513662 0.078465
v -0.099584 0.997525 0.021504
v -0.099584 0.513662 0.034834
vt 0.575890 0.288891
vt 0.575890 0.405426
vt 0.461302 0.405426
vt 0.461302 0.288891
vt 0.957585 0.608376
vt 0.957584 0.491842
vt 0.969391 0.491842
vt 0.969391 0.608376
vt 0.957584 0.377254
vt 0.969391 0.377254
vt 0.690479 0.288891
vt 0.690479 0.405426
vt 0.957584 0.262666
vt 0.969391 0.262665
vt 0.957584 0.146131
vt 0.969391 0.146131
vt 0.972998 0.015195
vt 0.984805 0.015195
vt 0.575890 0.157053
vt 0.690479 0.157053
vt 0.575890 0.012225
vt 0.690479 0.012225
vt 0.616393 0.576080
vt 0.604586 0.576080
vt 0.646002 0.437300
vt 0.657808 0.437300
vt 0.616393 0.690668
vt 0.604586 0.690669
vt 0.461302 0.157053
vt 0.461302 0.012225
vt 0.616393 0.805258
vt 0.604586 0.805258
vt 0.452664 0.011303
vt 0.451955 0.156130
vt 0.337367 0.155569
vt 0.338077 0.010742
vt 0.223489 0.010181
vt 0.222780 0.155008
vt 0.336722 0.287405
vt 0.222135 0.286844
vt 0.451309 0.287966
vt 0.972998 0.739311
vt 0.984805 0.739311
vt 0.657808 0.944039
vt 0.646001 0.944039
vt 0.450739 0.404499
vt 0.336151 0.403938
vt 0.221564 0.403377
vn -0.0000 -0.0586 -0.9983
vn -0.0000 0.7071 -0.7071
vn 0.5774 0.5774 -0.5774
vn 0.7077 -0.0414 -0.7053
vn 0.5774 0.5774 0.5774
vn 0.7077 0.0414 0.7053
vn 0.0000 0.7071 0.7071
vn -0.7077 -0.0414 -0.7053
vn -0.5774 0.5774 -0.5774
vn -0.5774 0.5774 0.5774
vn -0.7077 0.0414 0.7053
vn -0.7084 -0.1427 -0.6912
vn -0.7084 0.1427 0.6912
vn -0.0000 -0.2022 -0.9793
vn -0.0000 -0.8019 -0.5975
vn -0.5291 -0.6804 -0.5070
vn -0.6418 -0.4582 0.6149
vn 0.0000 -0.5975 0.8019
vn 0.7084 -0.1427 -0.6912
vn 0.5291 -0.6804 -0.5070
vn 0.6418 -0.4582 0.6149
vn 0.7084 0.1426 0.6912
vn 0.0000 0.2022 0.9793
vn 0.0000 0.0586 0.9983
vn 0.7077 0.0413 0.7053
vn 0.7084 0.1427 0.6912
usemtl Material.004
s 1
f 5/1/1 4/2/2 1/3/3 2/4/4
f 2/5/4 1/6/3 3/7/5 23/8/6
f 1/6/3 4/9/2 6/10/7 3/7/5
f 5/1/1 9/11/8 7/12/9 4/2/2
f 7/13/9 8/14/10 6/10/7 4/9/2
f 9/15/8 10/16/11 8/14/10 7/13/9
f 11/17/12 13/18/13 10/16/11 9/15/8
f 12/19/14 11/20/12 9/11/8 5/1/1
f 16/21/15 14/22/16 11/20/12 12/19/14
f 14/23/16 15/24/17 13/25/13 11/26/12
f 16/27/15 18/28/18 15/24/17 14/23/16
f 16/21/15 12/19/14 24/29/19 17/30/20
f 16/27/15 17/31/20 19/32/21 18/28/18
f 19/33/21 22/34/22 20/35/23 18/36/18
f 15/37/17 18/36/18 20/35/23 13/38/13
f 13/38/13 20/35/23 21/39/24 10/40/11
f 22/34/22 23/41/25 21/39/24 20/35/23
f 24/42/19 2/5/4 23/8/6 22/43/26
f 17/31/20 24/44/19 22/45/26 19/32/21
f 12/19/14 5/1/1 2/4/4 24/29/19
f 23/41/25 3/46/5 6/47/7 21/39/24
f 10/40/11 21/39/24 6/47/7 8/48/10
o chair_cushy_LP_Mesh.005
v -0.114266 1.406304 0.020771
v -0.114266 0.997525 0.020771
v -0.114266 1.406304 0.144423
v -0.523045 1.406304 0.020771
v -0.523045 0.997525 0.020771
v -0.523045 1.406304 0.144423
v -0.931823 1.406304 0.020771
v -0.931823 1.406304 0.144423
v -0.931823 0.997525 0.020771
v -0.931823 0.997525 0.144423
v -0.931823 0.533088 0.075082
v -0.931823 0.533088 0.198735
v -0.931823 0.010006 0.224841
v -0.523045 0.533088 0.075082
v -0.523045 0.010006 0.224841
v -0.114266 0.533088 0.075082
v -0.114266 0.010006 0.224841
v -0.114266 0.533088 0.198735
v -0.114266 0.997525 0.144423
v -0.523045 0.997525 0.144423
v -0.523045 0.533088 0.198735
v -0.931823 0.531503 0.757283
v -0.931823 0.007561 0.754835
v -0.523045 0.007561 0.754835
v -0.523045 0.010006 0.348494
v -0.114266 0.010006 0.348494
v -0.931823 0.010006 0.348494
v -0.523045 0.531503 0.757283
v -0.114266 0.007561 0.754835
v -0.114266 0.531503 0.757283
vt 0.056462 0.903148
vt 0.056462 0.876779
vt 0.082831 0.876779
vt 0.082831 0.903148
vt 0.899135 0.795478
vt 0.899135 0.679270
vt 0.929490 0.679270
vt 0.929490 0.795478
vt 0.899134 0.563062
vt 0.929490 0.563062
vt 0.030093 0.903148
vt 0.030093 0.876779
vt 0.899135 0.446854
vt 0.929490 0.446854
vt 0.899135 0.330646
vt 0.929490 0.330646
vt 0.056462 0.933311
vt 0.082831 0.933311
vt 0.912467 0.198616
vt 0.942823 0.198616
vt 0.131938 0.696907
vt 0.131798 0.727262
vt 0.003558 0.689905
vt 0.003698 0.659550
vt 0.056462 0.968409
vt 0.030093 0.968409
vt 0.030093 0.933311
vt 0.082831 0.968409
vt 0.912467 0.927508
vt 0.942823 0.927508
vt 0.824246 0.649074
vt 0.696006 0.686430
vt 0.695866 0.656075
vt 0.824106 0.618719
vt 0.007770 0.224397
vt 0.007770 0.109605
vt 0.108121 0.109605
vt 0.108121 0.224397
vt 0.208471 0.224397
vt 0.208471 0.109606
vt 0.208471 0.361517
vt 0.108120 0.361516
vt 0.131938 0.827016
vt 0.003314 0.827023
vt 0.007770 0.589895
vt 0.007770 0.490140
vt 0.108120 0.490140
vt 0.108120 0.589895
vt 0.208471 0.490140
vt 0.208471 0.589895
vt 0.108120 0.620250
vt 0.007770 0.620250
vt 0.208471 0.620250
vt 0.007770 0.361516
vt 0.695623 0.518958
vt 0.824246 0.518965
vt 0.108121 0.009255
vt 0.208471 0.009255
vt 0.007770 0.009255
vn -0.0000 -0.0582 -0.9983
vn -0.0000 0.7071 -0.7071
vn 0.5774 0.5774 -0.5774
vn 0.7077 -0.0411 -0.7053
vn 0.5774 0.5774 0.5774
vn 0.7077 0.0411 0.7053
vn 0.0000 0.7071 0.7071
vn -0.7077 -0.0411 -0.7053
vn -0.5774 0.5774 -0.5774
vn -0.5774 0.5774 0.5774
vn -0.7077 0.0411 0.7053
vn -0.0000 -0.1963 -0.9805
vn 0.7083 -0.1386 -0.6922
vn -0.7083 -0.1386 -0.6922
vn -0.8949 0.3330 0.2971
vn -0.5307 -0.6768 -0.5102
vn -0.7072 -0.7070 -0.0021
vn -0.0000 -0.7985 -0.6020
vn 0.5307 -0.6768 -0.5102
vn 0.8949 0.3329 0.2971
vn 0.7071 -0.7071 -0.0021
vn 0.0000 0.0582 0.9983
vn 0.0000 0.7461 0.6658
vn -0.5777 0.5750 0.5793
vn 0.0000 0.7044 0.7098
vn -0.5773 -0.5805 0.5743
vn 0.5776 -0.5803 0.5742
vn 0.0000 -0.7109 0.7033
vn -0.0000 -1.0000 -0.0030
vn 0.5778 0.5750 0.5793
usemtl cushy
s 1
f 29/49/27 28/50/28 25/51/29 26/52/30
f 26/53/30 25/54/29 27/55/31 43/56/32
f 25/54/29 28/57/28 30/58/33 27/55/31
f 29/49/27 33/59/34 31/60/35 28/50/28
f 31/61/35 32/62/36 30/58/33 28/57/28
f 33/63/34 34/64/37 32/62/36 31/61/35
f 38/65/38 29/49/27 26/52/30 40/66/39
f 35/67/40 36/68/41 34/64/37 33/63/34
f 37/69/42 51/70/43 36/71/41 35/72/40
f 39/73/44 37/74/42 35/75/40 38/65/38
f 39/73/44 38/65/38 40/66/39 41/76/45
f 40/77/39 26/53/30 43/56/32 42/78/46
f 41/79/45 40/80/39 42/81/46 50/82/47
f 42/83/46 43/84/32 44/85/48 45/86/49
f 36/87/41 45/86/49 44/85/48 34/88/37
f 36/87/41 46/89/50 52/90/51 45/86/49
f 51/70/43 47/91/52 46/92/50 36/71/41
f 50/93/47 53/94/53 48/95/54 49/96/55
f 48/95/54 47/97/52 51/98/43 49/96/55
f 39/99/44 41/100/45 50/93/47 49/96/55
f 39/99/44 49/96/55 51/98/43 37/101/42
f 45/86/49 52/90/51 54/102/56 42/83/46
f 47/97/52 48/95/54 52/90/51 46/89/50
f 53/94/53 54/102/56 52/90/51 48/95/54
f 54/103/56 53/104/53 50/82/47 42/81/46
f 34/88/37 44/85/48 30/105/33 32/106/36
f 43/84/32 27/107/31 30/105/33 44/85/48
f 38/65/38 35/75/40 33/59/34 29/49/27
o chair_side_thing_LP_Mesh.001
v -1.080704 0.535921 0.191497
v -1.080703 0.662527 0.191497
v -1.080704 0.535921 0.058522
v -1.080704 0.662527 0.058522
v -0.979730 0.535921 0.191497
v -0.979730 0.662527 0.191497
v -0.979730 0.535921 0.058522
v -0.979730 0.662527 0.058522
vt 0.911452 0.984322
vt 0.881810 0.984322
vt 0.881810 0.953189
vt 0.911452 0.953189
vt 0.981188 0.876824
vt 0.981188 0.906466
vt 0.957547 0.906466
vt 0.957547 0.876824
vt 0.936555 0.955224
vt 0.966196 0.955224
vt 0.966196 0.986357
vt 0.936555 0.986357
vt 0.957547 0.845692
vt 0.957547 0.816050
vt 0.981188 0.816050
vt 0.981188 0.845692
vt 0.981188 0.937598
vt 0.957547 0.937598
vn -0.5774 -0.5774 0.5774
vn -0.5773 0.5774 0.5774
vn -0.5774 0.5774 -0.5774
vn -0.5774 -0.5774 -0.5774
vn 0.5773 0.5774 -0.5774
vn 0.5774 -0.5774 -0.5774
vn 0.5774 0.5774 0.5773
vn 0.5774 -0.5774 0.5774
usemtl chair_side_thing
s 1
f 55/108/57 56/109/58 58/110/59 57/111/60
f 57/112/60 58/113/59 62/114/61 61/115/62
f 61/116/62 62/117/61 60/118/63 59/119/64
f 59/120/64 60/121/63 56/122/58 55/123/57
f 57/112/60 61/115/62 59/120/64 55/123/57
f 62/114/61 58/113/59 56/124/58 60/125/63
o chair_side_wood_LP_Mesh.007
v -0.102880 0.709280 0.837434
v -0.102880 0.744218 0.837434
v -0.102880 0.709280 -0.019877
v 0.003837 0.709280 0.837434
v 0.003837 0.744218 0.837434
v 0.003837 0.709280 -0.019877
v 0.003837 0.744218 -0.019877
v -0.102880 0.744218 -0.019877
v -0.943210 0.709280 0.837434
v -0.943210 0.709280 -0.019876
v -0.943210 0.744218 0.837434
v -1.049926 0.709280 0.837434
v -1.049927 0.709280 -0.019876
v -1.049926 0.744218 0.837434
v -1.049927 0.744218 -0.019876
v -0.943210 0.744218 -0.019876
vt 0.453448 0.668672
vt 0.463255 0.668672
vt 0.463255 0.698626
vt 0.453448 0.698626
vt 0.463255 0.939263
vt 0.453448 0.939263
vt 0.141537 0.629849
vt 0.171491 0.629849
vt 0.171491 0.870486
vt 0.141537 0.870486
vt 0.453449 0.428036
vt 0.463255 0.428036
vt 0.463255 0.969217
vt 0.453448 0.969217
vt 0.493209 0.939263
vt 0.493209 0.698626
vt 0.832360 0.897703
vt 0.832360 0.657067
vt 0.862315 0.657067
vt 0.862315 0.897703
vt 0.516174 0.700112
vt 0.516174 0.459475
vt 0.525980 0.459475
vt 0.525981 0.700112
vt 0.516174 0.730066
vt 0.525981 0.730066
vt 0.516174 0.970703
vt 0.525981 0.970703
vt 0.555935 0.459475
vt 0.555935 0.700112
vt 0.516174 0.429521
vt 0.525980 0.429521
vn 0.5774 -0.5774 0.5774
vn 0.5774 0.5774 0.5774
vn -0.5774 0.5774 0.5774
vn -0.5774 -0.5774 0.5774
vn -0.5774 0.5774 -0.5773
vn -0.5774 -0.5774 -0.5773
vn 0.5774 -0.5774 -0.5774
vn 0.5774 0.5774 -0.5774
usemtl chair_arms
s 1
f 66/126/65 67/127/66 64/128/67 63/129/68
f 63/129/68 64/128/67 70/130/69 65/131/70
f 65/132/70 68/133/71 66/134/65 63/135/68
f 68/136/71 69/137/72 67/127/66 66/126/65
f 65/131/70 70/130/69 69/138/72 68/139/71
f 69/140/72 70/130/69 64/128/67 67/141/66
f 72/142/71 71/143/65 74/144/68 75/145/70
f 71/146/65 72/147/71 78/148/72 73/149/66
f 74/150/68 71/146/65 73/149/66 76/151/67
f 75/152/70 74/150/68 76/151/67 77/153/69
f 77/154/69 76/155/67 73/149/66 78/148/72
f 72/147/71 75/156/70 77/157/69 78/148/72
o chair_sides_LP_Mesh.009
v -0.944321 0.000000 0.817557
v -0.944321 0.000000 0.000000
v -0.944321 0.720836 0.817557
v -1.046089 0.000000 0.817557
v -1.046090 0.000000 0.000000
v -1.046089 0.720836 0.817557
v -1.046090 0.720836 0.000000
v -0.944321 0.720836 0.000000
v -0.101768 -0.000000 0.817557
v -0.101768 0.720836 0.817557
v -0.101768 -0.000000 0.000000
v 0.000000 -0.000000 0.817557
v 0.000000 0.720836 0.817557
v 0.000000 0.000000 0.000000
v 0.000000 0.720836 0.000000
v -0.101768 0.720836 0.000000
vt 0.210179 0.637275
vt 0.210179 0.847100
vt 0.184060 0.847100
vt 0.184060 0.637275
vt 0.889535 0.286168
vt 0.889535 0.495993
vt 0.704533 0.495993
vt 0.704533 0.286168
vt 0.889536 0.260049
vt 0.704533 0.260049
vt 0.889536 0.050224
vt 0.704533 0.050224
vt 0.731341 0.962286
vt 0.731341 0.752461
vt 0.757460 0.752461
vt 0.757460 0.962286
vt 0.889536 0.024105
vt 0.704533 0.024105
vt 0.434258 0.692550
vt 0.249256 0.692550
vt 0.249256 0.666431
vt 0.434258 0.666431
vt 0.249256 0.456606
vt 0.434258 0.456606
vt 0.774484 0.753946
vt 0.800603 0.753946
vt 0.800603 0.963771
vt 0.774484 0.963771
vt 0.434258 0.902375
vt 0.249256 0.902375
vt 0.434258 0.928494
vt 0.249256 0.928494
vt 0.680773 0.753946
vt 0.706891 0.753946
vt 0.706891 0.963771
vt 0.680772 0.963771
vn 0.5774 -0.5774 -0.5774
vn 0.5774 -0.5774 0.5774
vn -0.5774 -0.5774 0.5774
vn -0.5774 -0.5774 -0.5774
vn 0.5774 0.5774 -0.5774
vn 0.5774 0.5774 0.5774
vn -0.5774 0.5774 0.5774
vn -0.5774 0.5774 -0.5774
vn 0.5774 -0.5773 0.5773
vn 0.5774 0.5773 0.5773
vn -0.5773 0.5774 0.5774
vn -0.5773 -0.5774 0.5774
vn -0.5774 -0.5774 -0.5773
vn 0.5774 -0.5773 -0.5774
usemtl Material.003
s 1
f 80/158/73 79/159/74 82/160/75 83/161/76
f 79/162/74 80/163/73 86/164/77 81/165/78
f 82/166/75 79/162/74 81/165/78 84/167/79
f 83/168/76 82/166/75 84/167/79 85/169/80
f 85/170/80 84/171/79 81/172/78 86/173/77
f 80/174/73 83/168/76 85/169/80 86/175/77
f 90/176/81 91/177/82 88/178/83 87/179/84
f 87/179/84 88/178/83 94/180/80 89/181/85
f 89/182/85 92/183/86 90/184/81 87/185/84
f 92/186/86 93/187/77 91/177/82 90/176/81
f 89/188/85 94/189/80 93/187/77 92/186/86
f 93/190/77 94/191/80 88/192/83 91/193/82
