# This file uses centimeters as units for non-parametric coordinates.

mtllib KeyWallet_v08_LP.mtl
g default
v 9.664863 3.031405 -7.496560
v 9.800116 3.933185 -7.086076
v 11.210812 4.270154 -10.727313
v 11.346065 5.171934 -10.316829
v 6.534780 1.664391 -7.942616
v 7.314126 1.513979 -7.334345
v 8.909326 2.404317 -10.802032
v 9.688672 2.253905 -10.193762
v 6.673071 2.109526 -10.096561
v 6.932956 1.655451 -9.244342
v 10.158935 3.568796 -10.382056
v 10.418819 3.114721 -9.529837
v 10.923964 5.231320 -7.795630
v 11.753220 4.722163 -7.565210
v 12.871904 7.251192 -10.342758
v 13.701160 6.742035 -10.112338
v 10.804784 4.771254 -6.984726
v 11.398862 3.984861 -7.154008
v 11.941144 6.331745 -10.245979
v 12.535222 5.545352 -10.415262
v 0.000000 0.000000 0.000000
v 8.004424 0.000000 0.000000
v -0.282245 1.166747 0.267670
v 8.286669 1.166747 0.267670
v -0.282245 1.166747 -11.597642
v 8.286669 1.166747 -11.597642
v 0.000000 0.000000 -11.329971
v 8.004424 0.000000 -11.329971
v 0.421680 1.129209 -0.381518
v 7.582744 1.129209 -0.381518
v 0.925758 1.513879 -1.773861
v 7.078666 1.513879 -1.773861
v 0.925758 1.513879 -10.901669
v 7.078666 1.513879 -10.901669
v 0.421680 1.129209 -10.948453
v 7.582744 1.129209 -10.948453
v 3.045165 1.059839 -8.672759
v 4.959259 1.059839 -8.672759
v 3.045165 1.576303 -8.672759
v 4.959259 1.576303 -8.672759
v 0.413285 1.576303 -11.066949
v 7.591139 1.576303 -11.066949
v 0.413285 1.059838 -11.066949
v 7.591139 1.059838 -11.066949
v 9.180678 1.796163 -9.629198
v 13.650030 6.940136 -9.629198
v 8.918638 2.023838 -9.629198
v 13.387989 7.167810 -9.629198
v 8.787186 1.872544 -10.956016
v 13.519442 7.319104 -10.956016
v 9.049227 1.644869 -10.956016
v 13.781483 7.091430 -10.956016
v 9.524375 0.677449 0.000000
v 14.774253 6.719764 0.000000
v 8.458513 1.229626 0.267670
v 14.078625 7.698060 0.267670
v 8.458513 1.229626 -11.597642
v 14.078625 7.698060 -11.597642
v 9.524375 0.677449 -11.329971
v 14.774253 6.719764 -11.329971
v 8.141840 1.394421 -8.609571
v 8.176207 0.904706 -8.609571
v 8.665921 0.939072 -8.609571
v 8.631556 1.428787 -8.609571
v 8.141840 1.394421 -2.720400
v 8.176207 0.904706 -2.720400
v 8.665921 0.939072 -2.720400
v 8.631556 1.428787 -2.720400
v 8.039992 2.931694 -7.775273
v 9.980245 3.294625 -5.514900
v 7.983573 3.076236 -7.750052
v 9.923825 3.439168 -5.489679
v 9.408978 3.738946 -8.359461
v 10.647435 3.970605 -6.916670
v 9.465396 3.594404 -8.384682
v 10.703855 3.826062 -6.941891
v 8.506288 2.939682 -6.777946
v 8.449868 3.084224 -6.752726
v 9.084051 3.047755 -6.104858
v 9.027632 3.192297 -6.079637
v 6.104650 1.674565 -3.920116
v 6.161069 1.530023 -3.945337
v 6.896406 1.832141 -4.031852
v 6.839987 1.976684 -4.006632
v 6.262223 1.868611 -4.679720
v 6.318643 1.724069 -4.704941
vt 0.670489 0.921143
vt 0.670143 0.991478
vt 0.403587 0.990167
vt 0.403933 0.919832
vt 0.670489 0.921143
vt 0.670143 0.991478
vt 0.403587 0.990168
vt 0.403933 0.919832
vt 0.670489 0.921143
vt 0.670143 0.991478
vt 0.403587 0.990168
vt 0.403933 0.919832
vt 0.670489 0.921143
vt 0.670143 0.991478
vt 0.403587 0.990168
vt 0.403933 0.919832
vt 0.670489 0.921143
vt 0.670143 0.991478
vt 0.403587 0.990168
vt 0.403933 0.919832
vt 0.018150 0.436237
vt 0.349738 0.435365
vt 0.326114 0.459484
vt 0.043388 0.459380
vt 0.341563 0.878525
vt 0.041799 0.881187
vt 0.368499 0.901652
vt 0.016421 0.905989
vt 0.035938 0.005512
vt 0.344704 0.008714
vt 0.723320 0.619997
vt 0.981832 0.612116
vt 0.960452 0.662885
vt 0.745901 0.668588
vt 0.959883 0.978537
vt 0.753332 0.976174
vt 0.980562 0.988855
vt 0.732907 0.986803
vt 0.862203 0.200113
vt 0.863155 0.117773
vt 0.881336 0.124463
vt 0.880087 0.193547
vt 0.967876 0.017667
vt 0.970963 0.297196
vt 0.987684 0.018026
vt 0.990692 0.297506
vt 0.951235 0.005929
vt 0.955124 0.309266
vt 0.040047 0.919011
vt 0.270921 0.917871
vt 0.267078 0.929358
vt 0.044628 0.929939
vt 0.286640 0.971733
vt 0.026128 0.976519
vt 0.286657 0.984048
vt 0.026203 0.988815
vt 0.297248 0.963346
vt 0.015784 0.968900
vt 0.706806 0.477436
vt 0.375218 0.478423
vt 0.398833 0.454297
vt 0.681560 0.454302
vt 0.383240 0.035261
vt 0.683003 0.032495
vt 0.356295 0.012142
vt 0.708372 0.007684
vt 0.689166 0.908167
vt 0.380400 0.905073
vt 0.962235 0.338421
vt 0.981070 0.338250
vt 0.983127 0.564195
vt 0.964293 0.564366
vt 0.905731 0.338936
vt 0.924566 0.338764
vt 0.926623 0.564709
vt 0.907789 0.564881
vt 0.943400 0.338593
vt 0.945458 0.564538
vt 0.943229 0.319758
vt 0.962064 0.319586
vt 0.964465 0.583201
vt 0.945630 0.583372
vt 0.804393 0.018799
vt 0.805233 0.011921
vt 0.832521 0.045595
vt 0.825239 0.047548
vt 0.820594 0.206894
vt 0.842890 0.302359
vt 0.755239 0.304566
vt 0.773375 0.204413
vt 0.843631 0.310178
vt 0.754718 0.312220
vt 0.822274 0.405120
vt 0.778763 0.405808
vt 0.876080 0.236776
vt 0.850458 0.304861
vt 0.868968 0.237927
vt 0.748080 0.307528
vt 0.719052 0.238585
vt 0.726344 0.239252
vt 0.781708 0.046277
vt 0.774514 0.043477
vt 0.727401 0.390927
vt 0.765814 0.202134
vt 0.828154 0.204732
vt 0.873188 0.388574
vt 0.803264 0.598029
vt 0.780817 0.565706
vt 0.824780 0.565077
vn -0.902940 0.282750 -0.323653
vn -0.902940 0.282750 -0.323653
vn -0.902940 0.282750 -0.323653
vn -0.902940 0.282750 -0.323653
vn -0.005273 0.969152 0.246407
vn -0.005273 0.969152 0.246407
vn -0.005273 0.969152 0.246407
vn -0.005273 0.969152 0.246407
vn -0.293946 0.803460 0.517734
vn -0.293946 0.803460 0.517734
vn -0.293946 0.803460 0.517734
vn -0.293946 0.803460 0.517734
vn 0.219399 0.675788 0.703687
vn 0.219399 0.675788 0.703687
vn 0.219399 0.675788 0.703687
vn 0.219399 0.675788 0.703687
vn 0.746433 0.460471 0.480422
vn 0.746433 0.460471 0.480422
vn 0.746433 0.460471 0.480422
vn 0.746433 0.460471 0.480422
vn 0.000000 -0.223607 0.974679
vn 0.000000 -0.223607 0.974679
vn 0.000000 -0.223607 0.974679
vn 0.000000 -0.223607 0.974679
vn 0.000000 1.000000 0.000000
vn 0.000000 1.000000 0.000000
vn 0.000000 1.000000 0.000000
vn 0.000000 1.000000 0.000000
vn 0.000000 -0.223607 -0.974679
vn 0.000000 -0.223607 -0.974679
vn 0.000000 -0.223607 -0.974679
vn 0.000000 -0.223607 -0.974679
vn 0.000000 -1.000000 0.000000
vn 0.000000 -1.000000 0.000000
vn 0.000000 -1.000000 0.000000
vn 0.000000 -1.000000 0.000000
vn 0.971965 -0.235126 0.000000
vn 0.971965 -0.235126 0.000000
vn 0.971965 -0.235126 0.000000
vn 0.971965 -0.235126 0.000000
vn -0.971965 -0.235126 0.000000
vn -0.971965 -0.235126 0.000000
vn -0.971965 -0.235126 0.000000
vn -0.971965 -0.235126 0.000000
vn 0.000000 0.963890 0.266300
vn 0.000000 0.963890 0.266300
vn 0.000000 0.963890 0.266300
vn 0.000000 0.963890 0.266300
vn 0.000000 1.000000 0.000000
vn 0.000000 1.000000 0.000000
vn 0.000000 1.000000 0.000000
vn 0.000000 1.000000 0.000000
vn 0.000000 0.120732 -0.992685
vn 0.000000 0.120732 -0.992685
vn 0.000000 0.120732 -0.992685
vn 0.000000 0.120732 -0.992685
vn 0.606653 0.794967 0.000000
vn 0.606654 0.794966 0.000000
vn 0.606654 0.794966 0.000000
vn 0.606653 0.794966 0.000000
vn -0.606653 0.794967 0.000000
vn -0.606653 0.794967 0.000000
vn -0.606653 0.794967 0.000000
vn -0.606653 0.794967 0.000000
vn 0.000000 0.000000 1.000000
vn 0.000000 0.000000 1.000000
vn 0.000000 0.000000 1.000000
vn 0.000000 0.000000 1.000000
vn 0.000000 1.000000 -0.000000
vn 0.000000 1.000000 -0.000000
vn 0.000000 1.000000 -0.000000
vn 0.000000 1.000000 -0.000000
vn 0.000000 0.000000 -1.000000
vn 0.000000 0.000000 -1.000000
vn 0.000000 0.000000 -1.000000
vn 0.000000 0.000000 -1.000000
vn 0.672914 0.000000 0.739720
vn 0.672914 0.000000 0.739720
vn 0.672914 0.000000 0.739720
vn 0.672914 0.000000 0.739720
vn -0.672915 0.000000 0.739720
vn -0.672915 0.000000 0.739720
vn -0.672915 0.000000 0.739720
vn -0.672915 0.000000 0.739720
vn -0.000000 0.000000 1.000000
vn -0.000000 0.000000 1.000000
vn -0.000000 0.000000 1.000000
vn -0.000000 0.000000 1.000000
vn -0.754872 0.655872 -0.000000
vn -0.754872 0.655872 -0.000000
vn -0.754872 0.655872 -0.000000
vn -0.754872 0.655872 -0.000000
vn 0.000002 0.000000 -1.000000
vn 0.000002 0.000000 -1.000000
vn 0.000002 0.000000 -1.000000
vn 0.000002 0.000000 -1.000000
vn 0.648515 0.746404 0.149362
vn 0.648515 0.746404 0.149362
vn 0.648515 0.746404 0.149362
vn 0.648515 0.746404 0.149362
vn -0.648516 -0.746404 0.149361
vn -0.648516 -0.746404 0.149361
vn -0.648516 -0.746404 0.149361
vn -0.648516 -0.746404 0.149361
vn 0.168795 -0.146658 0.974679
vn 0.168795 -0.146658 0.974679
vn 0.168795 -0.146658 0.974679
vn 0.168795 -0.146658 0.974679
vn -0.754872 0.655872 0.000000
vn -0.754872 0.655872 0.000000
vn -0.754872 0.655872 0.000000
vn -0.754872 0.655872 0.000000
vn 0.168795 -0.146658 -0.974679
vn 0.168795 -0.146658 -0.974679
vn 0.168795 -0.146658 -0.974679
vn 0.168795 -0.146658 -0.974679
vn 0.754872 -0.655872 0.000000
vn 0.754872 -0.655872 0.000000
vn 0.754872 -0.655872 0.000000
vn 0.754872 -0.655872 0.000000
vn 0.814975 0.579496 0.000000
vn 0.814975 0.579496 0.000000
vn 0.814975 0.579496 0.000000
vn 0.814975 0.579496 0.000000
vn -0.459995 -0.887922 0.000000
vn -0.459995 -0.887922 0.000000
vn -0.459995 -0.887922 0.000000
vn -0.459995 -0.887922 0.000000
vn -0.754872 0.655872 0.000000
vn -0.655872 -0.754872 0.000000
vn -0.655872 -0.754872 0.000000
vn -0.754872 0.655872 0.000000
vn 0.754872 -0.655872 0.000000
vn 0.754872 -0.655872 0.000000
vn 0.655872 0.754872 0.000000
vn 0.655872 0.754872 0.000000
vn 0.000000 0.000000 -1.000000
vn 0.000000 0.000000 -1.000000
vn 0.000000 0.000000 -1.000000
vn 0.000000 0.000000 -1.000000
vn 0.000000 0.000000 1.000000
vn 0.000000 0.000000 1.000000
vn 0.000000 0.000000 1.000000
vn 0.000000 0.000000 1.000000
vn 0.160091 -0.108700 0.981099
vn 0.160091 -0.108700 0.981099
vn 0.160091 -0.108700 0.981099
vn 0.160091 -0.108700 0.981099
vn -0.358901 0.919483 0.160438
vn -0.358901 0.919483 0.160438
vn -0.358901 0.919483 0.160438
vn -0.358901 0.919484 0.160438
vn 0.673174 0.374065 -0.637896
vn 0.673174 0.374065 -0.637896
vn 0.673174 0.374065 -0.637896
vn 0.673174 0.374065 -0.637896
vn 0.358901 -0.919484 -0.160438
vn 0.358901 -0.919484 -0.160438
vn 0.358901 -0.919484 -0.160438
vn 0.358901 -0.919484 -0.160438
vn 0.828837 0.234920 0.507781
vn 0.828837 0.234920 0.507782
vn 0.828837 0.234920 0.507782
vn 0.828837 0.234920 0.507781
vn -0.395431 0.005917 -0.918477
vn -0.395431 0.005917 -0.918477
vn -0.395431 0.005917 -0.918477
vn -0.395431 0.005917 -0.918477
vn -0.912340 -0.309301 -0.268270
vn -0.912340 -0.309301 -0.268270
vn -0.912340 -0.309301 -0.268270
vn -0.912340 -0.309301 -0.268270
vn 0.358901 -0.919484 -0.160438
vn 0.358901 -0.919484 -0.160438
vn 0.358901 -0.919484 -0.160438
vn -0.358901 0.919483 0.160438
vn -0.358901 0.919483 0.160438
vn -0.358901 0.919483 0.160438
vn -0.831755 -0.393058 0.392032
vn -0.831755 -0.393058 0.392032
vn -0.831755 -0.393058 0.392032
vn -0.831755 -0.393058 0.392032
vn -0.456728 -0.322913 0.828931
vn -0.456728 -0.322913 0.828931
vn -0.456728 -0.322913 0.828931
vn -0.456728 -0.322913 0.828931
vn -0.358902 0.919483 0.160438
vn -0.358902 0.919483 0.160438
vn -0.358902 0.919483 0.160438
vn 0.358901 -0.919483 -0.160438
vn 0.358902 -0.919483 -0.160438
vn 0.358901 -0.919483 -0.160438
vn 0.646550 0.120939 0.753224
vn 0.646550 0.120939 0.753224
vn 0.646550 0.120939 0.753224
vn 0.646550 0.120939 0.753224
vn -0.358901 0.919484 0.160438
vn -0.358901 0.919484 0.160438
vn -0.358901 0.919483 0.160438
vn -0.358901 0.919484 0.160438
vn -0.358901 0.919484 0.160438
vn -0.646551 -0.120943 -0.753223
vn -0.646551 -0.120943 -0.753223
vn -0.646551 -0.120943 -0.753223
vn -0.646551 -0.120943 -0.753223
vn 0.358901 -0.919483 -0.160438
vn 0.358901 -0.919483 -0.160438
vn 0.358901 -0.919484 -0.160438
vn 0.358901 -0.919483 -0.160438
vn 0.358901 -0.919484 -0.160438
s off
g KeyWallet_geo_LP
usemtl initialShadingGroup
f 1/1/1 2/2/2 4/3/3 3/4/4
f 5/5/5 6/6/6 8/7/7 7/8/8
f 9/9/9 10/10/10 12/11/11 11/12/12
f 13/13/13 14/14/14 16/15/15 15/16/16
f 17/17/17 18/18/18 20/19/19 19/20/20
f 21/21/21 22/22/22 24/23/23 23/24/24
f 23/24/25 24/23/26 26/25/27 25/26/28
f 25/26/29 26/25/30 28/27/31 27/28/32
f 27/29/33 28/30/34 22/22/35 21/21/36
f 22/22/37 28/27/38 26/25/39 24/23/40
f 27/28/41 21/21/42 23/24/43 25/26/44
f 29/31/45 30/32/46 32/33/47 31/34/48
f 31/34/49 32/33/50 34/35/51 33/36/52
f 33/36/53 34/35/54 36/37/55 35/38/56
f 30/32/57 36/37/58 34/35/59 32/33/60
f 35/38/61 29/31/62 31/34/63 33/36/64
f 37/39/65 38/40/66 40/41/67 39/42/68
f 39/42/69 40/41/70 42/43/71 41/44/72
f 41/44/73 42/43/74 44/45/75 43/46/76
f 38/40/77 44/47/78 42/43/79 40/41/80
f 43/48/81 37/39/82 39/42/83 41/44/84
f 45/49/85 46/50/86 48/51/87 47/52/88
f 47/52/89 48/51/90 50/53/91 49/54/92
f 49/54/93 50/53/94 52/55/95 51/56/96
f 46/50/97 52/57/98 50/53/99 48/51/100
f 51/58/101 45/49/102 47/52/103 49/54/104
f 53/59/105 54/60/106 56/61/107 55/62/108
f 55/62/109 56/61/110 58/63/111 57/64/112
f 57/64/113 58/63/114 60/65/115 59/66/116
f 59/67/117 60/68/118 54/60/119 53/59/120
f 54/60/121 60/65/122 58/63/123 56/61/124
f 59/66/125 53/59/126 55/62/127 57/64/128
s 1
f 61/69/129 62/70/130 66/71/131 65/72/132
f 62/73/130 63/74/133 67/75/134 66/76/131
f 63/74/133 64/77/135 68/78/136 67/75/134
f 64/77/135 61/69/129 65/72/132 68/78/136
s off
f 63/79/137 62/80/138 61/69/139 64/77/140
f 68/78/141 65/72/142 66/81/143 67/82/144
f 81/83/145 82/84/146 83/85/147 84/86/148
f 80/87/149 74/88/150 73/89/151 78/90/152
f 74/88/153 76/91/154 75/92/155 73/89/156
f 76/91/157 79/93/158 77/94/159 75/92/160
f 70/95/161 76/96/162 74/88/163 72/97/164
f 75/98/165 69/99/166 71/100/167 73/89/168
f 85/101/169 86/102/170 82/84/171 81/83/172
f 75/92/173 77/94/174 69/103/175
f 71/100/176 78/90/177 73/89/178
f 69/99/179 77/104/180 78/90/181 71/100/182
f 80/87/183 79/105/184 70/95/185 72/97/186
f 74/88/187 80/87/188 72/97/189
f 79/93/190 76/91/191 70/106/192
f 79/105/193 80/87/194 84/86/195 83/85/196
f 81/83/197 84/86/198 80/87/199 78/90/200 85/101/201
f 78/90/202 77/104/203 86/102/204 85/101/205
f 82/107/206 86/108/207 77/94/208 79/93/209 83/109/210
