# Blender v2.92.0 OBJ File: 'Kelley_Erin_Paperbox_05_complied textures.blend'
# www.blender.org
mtllib Paperbox_Lid_Off_LP_001.mtl
o Paperbox_no_lid_Cube
v -0.148018 0.313219 -0.200341
v -0.161471 0.000167 -0.220258
v 0.148018 0.313219 -0.200341
v 0.161478 0.000167 -0.220253
v -0.148018 0.313219 0.200341
v -0.161478 0.000167 0.220253
v 0.148018 0.313219 0.200341
v 0.161471 0.000167 0.220258
v 0.161478 0.313219 -0.220253
v 0.161471 0.313219 0.220258
v -0.161471 0.313219 -0.220258
v -0.161478 0.313219 0.220253
v 0.148018 0.057613 -0.200341
v 0.148018 0.057613 0.200341
v -0.148018 0.057613 -0.200341
v -0.148018 0.057613 0.200341
v -0.040028 0.261473 0.200340
v -0.040028 0.261473 0.220257
v -0.040028 0.261473 -0.220255
v -0.040028 0.261473 -0.200340
v -0.059415 0.287687 0.200340
v -0.059415 0.287687 0.220255
v -0.059415 0.287687 -0.220257
v -0.059415 0.287687 -0.200340
v 0.040028 0.261473 0.220257
v 0.040028 0.261473 0.200340
v 0.040028 0.261473 -0.200340
v 0.040028 0.261473 -0.220255
v 0.059415 0.287687 0.220257
v 0.059415 0.287687 0.200340
v 0.059415 0.287687 -0.200340
v 0.059415 0.287687 -0.220255
v 0.114138 0.058647 0.172331
v 0.114138 0.145037 0.172331
v -0.114144 0.058647 0.172328
v -0.114144 0.145037 0.172328
v 0.114143 0.058647 -0.145227
v 0.114143 0.145037 -0.145227
v -0.114139 0.058647 -0.145230
v -0.114139 0.145037 -0.145230
vt 0.609185 0.175758
vt 0.609185 0.000309
vt 0.856068 0.000309
vt 0.856068 0.175758
vt 0.837369 0.476151
vt 0.837369 0.723035
vt 0.656373 0.723035
vt 0.656373 0.476151
vt 0.181305 0.175758
vt 0.181305 0.000309
vt 0.428188 0.000309
vt 0.428188 0.175758
vt 0.668817 0.228374
vt 0.668814 0.452936
vt 0.661274 0.464099
vt 0.661274 0.217215
vt 0.834729 0.228377
vt 0.842270 0.217214
vt 0.834726 0.452939
vt 0.842270 0.464098
vt 0.600214 0.501250
vt 0.600214 0.725811
vt 0.434302 0.725811
vt 0.434302 0.501250
vt 0.156631 0.205780
vt 0.156631 0.430341
vt 0.013377 0.430341
vt 0.013377 0.205780
vt 0.156631 0.596254
vt 0.156631 0.820815
vt 0.013377 0.820815
vt 0.013377 0.596254
vt 0.383379 0.544026
vt 0.383379 0.525753
vt 0.394540 0.525753
vt 0.394541 0.544026
vt 0.570575 0.749026
vt 0.570575 0.737865
vt 0.588847 0.737864
vt 0.588847 0.749026
vt 0.383379 0.588893
vt 0.394541 0.588893
vt 0.394541 0.607166
vt 0.383379 0.607166
vt 0.507434 0.749026
vt 0.507434 0.737865
vt 0.525707 0.737865
vt 0.525707 0.749026
vt 0.394540 0.673764
vt 0.383379 0.673764
vt 0.440836 0.749026
vt 0.440836 0.737864
vt 0.210280 0.968256
vt 0.160623 0.982567
vt 0.160619 0.839313
vt 0.221145 0.953565
vt 0.326535 0.982562
vt 0.276878 0.968254
vt 0.124104 0.014618
vt 0.113239 0.029309
vt 0.057506 0.014618
vt 0.000309 0.000309
vt 0.485386 0.014618
vt 0.551984 0.014618
vt 0.541118 0.029309
vt 0.127630 0.535731
vt 0.142322 0.546596
vt 0.142322 0.479999
vt 0.496251 0.029309
vt 0.000309 0.175758
vt 0.068371 0.029309
vt 0.127630 0.490864
vt 0.326531 0.839309
vt 0.266012 0.953563
vt 0.622427 0.768384
vt 0.622427 0.817563
vt 0.492475 0.817563
vt 0.492475 0.768384
vt 0.311703 0.817563
vt 0.311703 0.768384
vt 0.181752 0.817563
vt 0.181752 0.768384
vt 0.803199 0.768384
vt 0.803199 0.817563
vt 0.586440 0.982436
vt 0.405667 0.982436
vt 0.405667 0.852485
vt 0.586440 0.852485
vt 0.831717 0.982586
vt 0.650945 0.982576
vt 0.650952 0.852625
vt 0.831724 0.852635
vn 1.0000 0.0000 0.0000
vn 0.0000 -1.0000 -0.0000
vn -1.0000 0.0000 -0.0000
vn 0.0000 1.0000 -0.0000
vn 0.8040 0.5946 0.0000
vn -0.8040 0.5946 0.0000
vn 0.0000 -0.0000 -1.0000
vn -0.0000 0.0000 1.0000
usemtl main_Box_material
s off
f 4/1/1 9/2/1 10/3/1 8/4/1
f 6/5/2 2/6/2 4/7/2 8/8/2
f 6/9/3 12/10/3 11/11/3 2/12/3
f 3/13/4 7/14/4 10/15/4 9/16/4
f 1/17/4 3/13/4 9/16/4 11/18/4
f 7/14/4 5/19/4 12/20/4 10/15/4
f 5/19/4 1/17/4 11/18/4 12/20/4
f 15/21/4 16/22/4 14/23/4 13/24/4
f 7/25/3 3/26/3 13/27/3 14/28/3
f 1/29/1 5/30/1 16/31/1 15/32/1
f 17/33/5 21/34/5 22/35/5 18/36/5
f 20/37/5 19/38/5 23/39/5 24/40/5
f 26/41/6 25/42/6 29/43/6 30/44/6
f 31/45/6 32/46/6 28/47/6 27/48/6
f 27/48/4 28/47/4 19/38/4 20/37/4
f 17/33/4 18/36/4 25/42/4 26/41/4
f 30/44/2 29/43/2 22/49/2 21/50/2
f 32/46/2 31/45/2 24/51/2 23/52/2
f 30/53/7 7/54/7 14/55/7 26/56/7
f 5/57/7 7/54/7 30/53/7 21/58/7
f 22/59/8 12/10/8 6/9/8 18/60/8
f 29/61/8 10/62/8 12/10/8 22/59/8
f 23/63/7 11/11/7 9/2/7 32/64/7
f 9/2/7 4/1/7 28/65/7 32/64/7
f 1/29/8 15/32/8 20/66/8 24/67/8
f 31/68/8 3/26/8 1/29/8 24/67/8
f 28/65/7 4/1/7 2/12/7 19/69/7
f 19/69/7 2/12/7 11/11/7 23/63/7
f 18/60/8 6/9/8 8/70/8 25/71/8
f 25/71/8 8/70/8 10/62/8 29/61/8
f 20/66/8 15/32/8 13/27/8 27/72/8
f 27/72/8 13/27/8 3/26/8 31/68/8
f 26/56/7 14/55/7 16/73/7 17/74/7
f 17/74/7 16/73/7 5/57/7 21/58/7
usemtl paper_material
f 33/75/8 34/76/8 36/77/8 35/78/8
f 35/78/3 36/77/3 40/79/3 39/80/3
f 39/80/7 40/79/7 38/81/7 37/82/7
f 37/83/1 38/84/1 34/76/1 33/75/1
f 35/85/2 39/86/2 37/87/2 33/88/2
f 40/89/4 36/90/4 34/91/4 38/92/4
