# Blender v2.92.0 OBJ File: 'Kelley_Erin_Paperbox_05_complied textures.blend'
# www.blender.org
mtllib Paperbox_PaperStack_LP_001.mtl
o paper_stack_body_Cube.006
v 0.114138 0.000438 0.172331
v 0.114138 0.086828 0.172331
v -0.114144 0.000438 0.172328
v -0.114144 0.086828 0.172328
v 0.114143 0.000438 -0.145227
v 0.114143 0.086828 -0.145227
v -0.114139 0.000438 -0.145230
v -0.114139 0.086828 -0.145230
v 0.094564 0.022027 0.181849
v 0.126005 0.022027 -0.132700
v -0.126006 0.022027 0.159802
v -0.094564 0.022027 -0.154748
v 0.123608 0.070728 0.144449
v 0.097291 0.070728 -0.170571
v -0.097291 0.070728 0.162902
v -0.123608 0.070728 -0.152117
v 0.105693 0.063544 0.154626
v 0.106841 0.063544 -0.161489
v -0.115974 0.063544 0.153820
v -0.114826 0.063544 -0.162294
v 0.118964 0.079911 0.179880
v 0.121810 0.079911 -0.136225
v -0.102696 0.079911 0.177884
v -0.099850 0.079911 -0.138220
v 0.105371 0.027874 0.180126
v 0.092883 0.027874 -0.135744
v -0.116124 0.027874 0.188884
v -0.128612 0.027874 -0.126987
v 0.138339 0.036905 0.148299
v 0.119612 0.036905 -0.167263
v -0.082940 0.036905 0.161431
v -0.101668 0.036905 -0.154131
v 0.093792 0.014081 0.152849
v 0.118088 0.014081 -0.162333
v -0.127221 0.014081 0.135812
v -0.102925 0.014081 -0.179370
v 0.097121 0.048580 0.154626
v 0.098270 0.048580 -0.161489
v -0.124545 0.048580 0.153820
v -0.123397 0.048580 -0.162295
v 0.113872 0.051923 0.153315
v 0.115021 0.051923 -0.162800
v -0.107795 0.051923 0.152509
v -0.106646 0.051923 -0.163605
vt 0.622427 0.768384
vt 0.622427 0.817563
vt 0.492475 0.817563
vt 0.492475 0.768384
vt 0.311703 0.817563
vt 0.311703 0.768384
vt 0.181752 0.817563
vt 0.181752 0.768384
vt 0.803199 0.768384
vt 0.803199 0.817563
vt 0.586440 0.982436
vt 0.405667 0.982436
vt 0.405667 0.852485
vt 0.586440 0.852485
vt 0.831717 0.982586
vt 0.650945 0.982576
vt 0.650952 0.852625
vt 0.831724 0.852635
vt 0.125930 0.849853
vt 0.125930 0.964796
vt 0.045330 0.964796
vt 0.045330 0.849853
vt 0.125930 0.849853
vt 0.125930 0.964796
vt 0.045330 0.964796
vt 0.045330 0.849853
vt 0.125930 0.849853
vt 0.125930 0.964796
vt 0.045330 0.964796
vt 0.045330 0.849853
vt 0.125930 0.849853
vt 0.125930 0.964796
vt 0.045330 0.964796
vt 0.045330 0.849853
vt 0.125930 0.849853
vt 0.125930 0.964796
vt 0.045330 0.964796
vt 0.045330 0.849853
vt 0.125930 0.849853
vt 0.125930 0.964796
vt 0.045330 0.964796
vt 0.045330 0.849853
vt 0.126017 0.849766
vt 0.126017 0.964709
vt 0.045416 0.964709
vt 0.045416 0.849766
vt 0.125930 0.849853
vt 0.125930 0.964796
vt 0.045330 0.964796
vt 0.045330 0.849853
vt 0.125930 0.849853
vt 0.125930 0.964796
vt 0.045330 0.964796
vt 0.045330 0.849853
vn -0.0000 0.0000 1.0000
vn -1.0000 0.0000 -0.0000
vn 0.0000 0.0000 -1.0000
vn 1.0000 0.0000 0.0000
vn 0.0000 -1.0000 -0.0000
vn 0.0000 1.0000 0.0000
usemtl paper_material
s off
f 1/1/1 2/2/1 4/3/1 3/4/1
f 3/4/2 4/3/2 8/5/2 7/6/2
f 7/6/3 8/5/3 6/7/3 5/8/3
f 5/9/4 6/10/4 2/2/4 1/1/4
f 3/11/5 7/12/5 5/13/5 1/14/5
f 8/15/6 4/16/6 2/17/6 6/18/6
f 9/19/6 10/20/6 12/21/6 11/22/6
f 13/23/6 14/24/6 16/25/6 15/26/6
f 17/27/6 18/28/6 20/29/6 19/30/6
f 21/31/6 22/32/6 24/33/6 23/34/6
f 25/35/6 26/36/6 28/37/6 27/38/6
f 29/39/6 30/40/6 32/41/6 31/42/6
f 33/43/6 34/44/6 36/45/6 35/46/6
f 37/47/6 38/48/6 40/49/6 39/50/6
f 41/51/6 42/52/6 44/53/6 43/54/6
